<mxfile host="app.diagrams.net" modified="2022-12-17T01:00:57.465Z" agent="5.0 (Macintosh; Intel Mac OS X 10_15_7) AppleWebKit/537.36 (KHTML, like Gecko) Chrome/108.0.0.0 Safari/537.36" version="20.7.4" etag="rKmqybwQvgZCuh5T6bNw" type="github">
  <diagram id="jOsbuhTEkzfx8V9eVGBH" name="Page-1">
    <mxGraphModel dx="1804" dy="-661" grid="1" gridSize="10" guides="1" tooltips="1" connect="1" arrows="1" fold="1" page="1" pageScale="1" pageWidth="850" pageHeight="1100" math="0" shadow="0">
      <root>
        <mxCell id="0" />
        <mxCell id="1" parent="0" />
        <mxCell id="vBR_OR7zdOcUDZrQUzhq-1" value="Passenger" style="swimlane;whiteSpace=wrap" vertex="1" parent="1">
          <mxGeometry x="-690" y="1920" width="294.5" height="1480" as="geometry" />
        </mxCell>
        <mxCell id="vBR_OR7zdOcUDZrQUzhq-2" value="" style="ellipse;shape=startState;fillColor=#d5e8d4;strokeColor=#82b366;" vertex="1" parent="vBR_OR7zdOcUDZrQUzhq-1">
          <mxGeometry x="100" y="40" width="30" height="30" as="geometry" />
        </mxCell>
        <mxCell id="vBR_OR7zdOcUDZrQUzhq-3" value="" style="edgeStyle=elbowEdgeStyle;elbow=horizontal;verticalAlign=bottom;endArrow=open;endSize=8;strokeColor=#432D57;endFill=1;rounded=0;fillColor=#76608a;entryX=0.469;entryY=-0.025;entryDx=0;entryDy=0;entryPerimeter=0;exitX=0.5;exitY=1;exitDx=0;exitDy=0;" edge="1" parent="vBR_OR7zdOcUDZrQUzhq-1" source="vBR_OR7zdOcUDZrQUzhq-2" target="vBR_OR7zdOcUDZrQUzhq-4">
          <mxGeometry x="100" y="40" as="geometry">
            <mxPoint x="115" y="110" as="targetPoint" />
            <mxPoint x="116" y="71" as="sourcePoint" />
          </mxGeometry>
        </mxCell>
        <mxCell id="vBR_OR7zdOcUDZrQUzhq-4" value="selects ‘From’ &#xa;on the main menu" style="fontSize=14;fillColor=#d5e8d4;strokeColor=#82b366;" vertex="1" parent="vBR_OR7zdOcUDZrQUzhq-1">
          <mxGeometry x="36.25" y="121" width="170" height="70" as="geometry" />
        </mxCell>
        <mxCell id="vBR_OR7zdOcUDZrQUzhq-5" value="passenger chooses&#xa; ‘Find my current location’" style="fillColor=#d5e8d4;strokeColor=#82b366;" vertex="1" parent="vBR_OR7zdOcUDZrQUzhq-1">
          <mxGeometry x="47.5" y="260" width="132.5" height="54" as="geometry" />
        </mxCell>
        <mxCell id="vBR_OR7zdOcUDZrQUzhq-6" value="The passenger selects &#xa;‘To’ on the main menu" style="fillColor=#d5e8d4;strokeColor=#82b366;" vertex="1" parent="vBR_OR7zdOcUDZrQUzhq-1">
          <mxGeometry x="48.75" y="449" width="157.5" height="60" as="geometry" />
        </mxCell>
        <mxCell id="vBR_OR7zdOcUDZrQUzhq-7" value="passenger &#xa;selects ‘fastest route’" style="fillColor=#d5e8d4;strokeColor=#82b366;" vertex="1" parent="vBR_OR7zdOcUDZrQUzhq-1">
          <mxGeometry x="59.75" y="920" width="157.5" height="60" as="geometry" />
        </mxCell>
        <mxCell id="vBR_OR7zdOcUDZrQUzhq-8" value="passenger types in &#xa;the destination address" style="fillColor=#d5e8d4;strokeColor=#82b366;" vertex="1" parent="vBR_OR7zdOcUDZrQUzhq-1">
          <mxGeometry x="58.75" y="630" width="141.25" height="50" as="geometry" />
        </mxCell>
        <mxCell id="vBR_OR7zdOcUDZrQUzhq-9" value="passenger &#xa;chooses the correct destination" style="fillColor=#d5e8d4;strokeColor=#82b366;" vertex="1" parent="vBR_OR7zdOcUDZrQUzhq-1">
          <mxGeometry x="20" y="770" width="180" height="50" as="geometry" />
        </mxCell>
        <mxCell id="vBR_OR7zdOcUDZrQUzhq-10" value="System" style="swimlane;whiteSpace=wrap;fillColor=#e1d5e7;strokeColor=#9673a6;" vertex="1" parent="1">
          <mxGeometry x="-395" y="1920" width="325" height="1480" as="geometry" />
        </mxCell>
        <mxCell id="vBR_OR7zdOcUDZrQUzhq-11" value="opens GPS system and &#xa;display lists of addresses" style="fillColor=#ffe6cc;strokeColor=#d79b00;" vertex="1" parent="vBR_OR7zdOcUDZrQUzhq-10">
          <mxGeometry x="97.5" y="112" width="145" height="80" as="geometry" />
        </mxCell>
        <mxCell id="vBR_OR7zdOcUDZrQUzhq-12" value="" style="edgeStyle=orthogonalEdgeStyle;rounded=0;orthogonalLoop=1;jettySize=auto;html=1;fontSize=14;" edge="1" parent="vBR_OR7zdOcUDZrQUzhq-10" source="vBR_OR7zdOcUDZrQUzhq-13" target="vBR_OR7zdOcUDZrQUzhq-21">
          <mxGeometry relative="1" as="geometry" />
        </mxCell>
        <mxCell id="vBR_OR7zdOcUDZrQUzhq-13" value="displays lists of addresses" style="fillColor=#ffe6cc;strokeColor=#d79b00;" vertex="1" parent="vBR_OR7zdOcUDZrQUzhq-10">
          <mxGeometry x="75" y="300" width="197.5" height="50" as="geometry" />
        </mxCell>
        <mxCell id="vBR_OR7zdOcUDZrQUzhq-14" value="records the address in the ‘To’ column" style="fillColor=#ffe6cc;strokeColor=#d79b00;" vertex="1" parent="vBR_OR7zdOcUDZrQUzhq-10">
          <mxGeometry x="70" y="830" width="210" height="60" as="geometry" />
        </mxCell>
        <mxCell id="vBR_OR7zdOcUDZrQUzhq-15" value="displays the fastest route" style="fillColor=#ffe6cc;strokeColor=#d79b00;" vertex="1" parent="vBR_OR7zdOcUDZrQUzhq-10">
          <mxGeometry x="100" y="980" width="175" height="52" as="geometry" />
        </mxCell>
        <mxCell id="vBR_OR7zdOcUDZrQUzhq-16" value="" style="edgeStyle=orthogonalEdgeStyle;rounded=0;orthogonalLoop=1;jettySize=auto;html=1;fontSize=14;endArrow=none;exitX=0.477;exitY=1.038;exitDx=0;exitDy=0;exitPerimeter=0;entryX=0.5;entryY=0;entryDx=0;entryDy=0;" edge="1" parent="vBR_OR7zdOcUDZrQUzhq-10" source="vBR_OR7zdOcUDZrQUzhq-15" target="vBR_OR7zdOcUDZrQUzhq-25">
          <mxGeometry relative="1" as="geometry">
            <mxPoint x="178" y="980" as="sourcePoint" />
            <mxPoint x="182.68421052631584" y="1070.028214867064" as="targetPoint" />
          </mxGeometry>
        </mxCell>
        <mxCell id="vBR_OR7zdOcUDZrQUzhq-17" value="" style="ellipse;whiteSpace=wrap;html=1;aspect=fixed;fontSize=14;strokeColor=default;movable=1;resizable=1;rotatable=1;deletable=1;editable=1;connectable=1;" vertex="1" parent="vBR_OR7zdOcUDZrQUzhq-10">
          <mxGeometry x="163.56" y="1230" width="40" height="40" as="geometry" />
        </mxCell>
        <mxCell id="vBR_OR7zdOcUDZrQUzhq-18" value="records the address &#xa;in the ‘from’ column" style="fillColor=#ffe6cc;strokeColor=#d79b00;" vertex="1" parent="vBR_OR7zdOcUDZrQUzhq-10">
          <mxGeometry x="15" y="450" width="205" height="70" as="geometry" />
        </mxCell>
        <mxCell id="vBR_OR7zdOcUDZrQUzhq-19" style="edgeStyle=orthogonalEdgeStyle;rounded=0;orthogonalLoop=1;jettySize=auto;html=1;exitX=0;exitY=0.5;exitDx=0;exitDy=0;fontSize=14;fontColor=#7EA6E0;" edge="1" parent="vBR_OR7zdOcUDZrQUzhq-10" source="vBR_OR7zdOcUDZrQUzhq-21">
          <mxGeometry relative="1" as="geometry">
            <mxPoint x="118" y="450" as="targetPoint" />
          </mxGeometry>
        </mxCell>
        <mxCell id="vBR_OR7zdOcUDZrQUzhq-20" style="edgeStyle=orthogonalEdgeStyle;rounded=0;orthogonalLoop=1;jettySize=auto;html=1;exitX=1;exitY=0.5;exitDx=0;exitDy=0;entryX=1;entryY=0.5;entryDx=0;entryDy=0;fontSize=14;fontColor=#7EA6E0;" edge="1" parent="vBR_OR7zdOcUDZrQUzhq-10" source="vBR_OR7zdOcUDZrQUzhq-21" target="vBR_OR7zdOcUDZrQUzhq-25">
          <mxGeometry relative="1" as="geometry">
            <Array as="points">
              <mxPoint x="295" y="405" />
              <mxPoint x="295" y="1130" />
            </Array>
          </mxGeometry>
        </mxCell>
        <mxCell id="vBR_OR7zdOcUDZrQUzhq-21" value="" style="rhombus;fillColor=#dae8fc;strokeColor=#6c8ebf;" vertex="1" parent="vBR_OR7zdOcUDZrQUzhq-10">
          <mxGeometry x="149.93" y="390" width="47.63" height="30" as="geometry" />
        </mxCell>
        <mxCell id="vBR_OR7zdOcUDZrQUzhq-22" value="&lt;b&gt;&lt;font color=&quot;#7ea6e0&quot;&gt;[Success]&lt;/font&gt;&lt;/b&gt;" style="text;html=1;strokeColor=none;fillColor=none;align=center;verticalAlign=middle;whiteSpace=wrap;rounded=0;fontSize=14;" vertex="1" parent="vBR_OR7zdOcUDZrQUzhq-10">
          <mxGeometry x="75" y="368" width="60" height="30" as="geometry" />
        </mxCell>
        <mxCell id="vBR_OR7zdOcUDZrQUzhq-23" value="&lt;b&gt;&lt;font color=&quot;#7ea6e0&quot;&gt;[Fail]&lt;/font&gt;&lt;/b&gt;" style="text;html=1;strokeColor=none;fillColor=none;align=center;verticalAlign=middle;whiteSpace=wrap;rounded=0;fontSize=14;" vertex="1" parent="vBR_OR7zdOcUDZrQUzhq-10">
          <mxGeometry x="212.5" y="370" width="60" height="30" as="geometry" />
        </mxCell>
        <mxCell id="vBR_OR7zdOcUDZrQUzhq-24" value="" style="edgeStyle=orthogonalEdgeStyle;rounded=0;orthogonalLoop=1;jettySize=auto;html=1;fontSize=14;fontColor=#7EA6E0;entryX=0.5;entryY=0;entryDx=0;entryDy=0;" edge="1" parent="vBR_OR7zdOcUDZrQUzhq-10" source="vBR_OR7zdOcUDZrQUzhq-25" target="vBR_OR7zdOcUDZrQUzhq-26">
          <mxGeometry relative="1" as="geometry">
            <mxPoint x="178" y="1370" as="targetPoint" />
          </mxGeometry>
        </mxCell>
        <mxCell id="vBR_OR7zdOcUDZrQUzhq-25" value="" style="rhombus;fillColor=#dae8fc;strokeColor=#6c8ebf;" vertex="1" parent="vBR_OR7zdOcUDZrQUzhq-10">
          <mxGeometry x="157.4" y="1110" width="52.32" height="40" as="geometry" />
        </mxCell>
        <mxCell id="vBR_OR7zdOcUDZrQUzhq-26" value="" style="ellipse;whiteSpace=wrap;html=1;aspect=fixed;fontSize=14;strokeColor=none;fillColor=#bac8d3;movable=1;resizable=1;rotatable=1;deletable=1;editable=1;connectable=1;" vertex="1" parent="vBR_OR7zdOcUDZrQUzhq-10">
          <mxGeometry x="167.01" y="1233.35" width="33.31" height="33.31" as="geometry" />
        </mxCell>
        <mxCell id="vBR_OR7zdOcUDZrQUzhq-27" value="displays a blank searching &#xa;destination menu" style="fillColor=#ffe6cc;strokeColor=#d79b00;" vertex="1" parent="vBR_OR7zdOcUDZrQUzhq-10">
          <mxGeometry x="94.25" y="562" width="165" height="50" as="geometry" />
        </mxCell>
        <mxCell id="vBR_OR7zdOcUDZrQUzhq-28" value="displays lists of &#xa;potential destination addresses" style="fillColor=#ffe6cc;strokeColor=#d79b00;" vertex="1" parent="vBR_OR7zdOcUDZrQUzhq-10">
          <mxGeometry x="84" y="696" width="182.5" height="50" as="geometry" />
        </mxCell>
        <mxCell id="vBR_OR7zdOcUDZrQUzhq-29" style="edgeStyle=orthogonalEdgeStyle;rounded=0;orthogonalLoop=1;jettySize=auto;html=1;fontSize=14;fillColor=#76608a;strokeColor=#432D57;exitX=1.001;exitY=0.529;exitDx=0;exitDy=0;exitPerimeter=0;" edge="1" parent="1" source="vBR_OR7zdOcUDZrQUzhq-4">
          <mxGeometry relative="1" as="geometry">
            <mxPoint x="-470" y="2177" as="sourcePoint" />
            <mxPoint x="-300" y="2077" as="targetPoint" />
          </mxGeometry>
        </mxCell>
        <mxCell id="vBR_OR7zdOcUDZrQUzhq-30" style="edgeStyle=orthogonalEdgeStyle;rounded=0;orthogonalLoop=1;jettySize=auto;html=1;fontSize=14;exitX=0.461;exitY=1.077;exitDx=0;exitDy=0;exitPerimeter=0;" edge="1" parent="1" source="vBR_OR7zdOcUDZrQUzhq-5">
          <mxGeometry relative="1" as="geometry">
            <mxPoint x="-560" y="2235" as="sourcePoint" />
            <mxPoint x="-320" y="2250" as="targetPoint" />
            <Array as="points">
              <mxPoint x="-580" y="2238" />
              <mxPoint x="-580" y="2250" />
            </Array>
          </mxGeometry>
        </mxCell>
        <mxCell id="vBR_OR7zdOcUDZrQUzhq-31" value="" style="edgeStyle=orthogonalEdgeStyle;rounded=0;orthogonalLoop=1;jettySize=auto;html=1;fontSize=14;fontColor=#7EA6E0;exitX=-0.007;exitY=0.486;exitDx=0;exitDy=0;exitPerimeter=0;entryX=0.998;entryY=0.562;entryDx=0;entryDy=0;entryPerimeter=0;" edge="1" parent="1" source="vBR_OR7zdOcUDZrQUzhq-18" target="vBR_OR7zdOcUDZrQUzhq-6">
          <mxGeometry relative="1" as="geometry">
            <mxPoint x="-480" y="2400" as="targetPoint" />
          </mxGeometry>
        </mxCell>
        <mxCell id="vBR_OR7zdOcUDZrQUzhq-32" style="edgeStyle=orthogonalEdgeStyle;rounded=0;orthogonalLoop=1;jettySize=auto;html=1;fontSize=14;fontColor=#7EA6E0;entryX=-0.005;entryY=0.38;entryDx=0;entryDy=0;entryPerimeter=0;" edge="1" parent="1" target="vBR_OR7zdOcUDZrQUzhq-27">
          <mxGeometry relative="1" as="geometry">
            <mxPoint x="-562" y="2430" as="sourcePoint" />
            <Array as="points">
              <mxPoint x="-562" y="2503" />
              <mxPoint x="-305" y="2503" />
              <mxPoint x="-305" y="2501" />
            </Array>
          </mxGeometry>
        </mxCell>
        <mxCell id="vBR_OR7zdOcUDZrQUzhq-33" style="edgeStyle=orthogonalEdgeStyle;rounded=0;orthogonalLoop=1;jettySize=auto;html=1;fontSize=14;fontColor=#7EA6E0;entryX=1.011;entryY=0.48;entryDx=0;entryDy=0;entryPerimeter=0;" edge="1" parent="1" target="vBR_OR7zdOcUDZrQUzhq-8">
          <mxGeometry relative="1" as="geometry">
            <mxPoint x="-218" y="2530" as="sourcePoint" />
            <Array as="points">
              <mxPoint x="-218" y="2575" />
            </Array>
          </mxGeometry>
        </mxCell>
        <mxCell id="vBR_OR7zdOcUDZrQUzhq-34" style="edgeStyle=orthogonalEdgeStyle;rounded=0;orthogonalLoop=1;jettySize=auto;html=1;fontSize=14;fontColor=#7EA6E0;entryX=-0.019;entryY=0.6;entryDx=0;entryDy=0;entryPerimeter=0;" edge="1" parent="1" target="vBR_OR7zdOcUDZrQUzhq-28">
          <mxGeometry relative="1" as="geometry">
            <mxPoint x="-560" y="2600" as="sourcePoint" />
            <Array as="points">
              <mxPoint x="-560" y="2645" />
              <mxPoint x="-318" y="2645" />
            </Array>
          </mxGeometry>
        </mxCell>
        <mxCell id="vBR_OR7zdOcUDZrQUzhq-35" style="edgeStyle=orthogonalEdgeStyle;rounded=0;orthogonalLoop=1;jettySize=auto;html=1;fontSize=14;fontColor=#7EA6E0;" edge="1" parent="1">
          <mxGeometry relative="1" as="geometry">
            <mxPoint x="-220" y="2670" as="sourcePoint" />
            <mxPoint x="-490" y="2715" as="targetPoint" />
            <Array as="points">
              <mxPoint x="-220" y="2715" />
            </Array>
          </mxGeometry>
        </mxCell>
        <mxCell id="vBR_OR7zdOcUDZrQUzhq-36" style="edgeStyle=orthogonalEdgeStyle;rounded=0;orthogonalLoop=1;jettySize=auto;html=1;fontSize=14;fontColor=#7EA6E0;entryX=0;entryY=0.5;entryDx=0;entryDy=0;" edge="1" parent="1" target="vBR_OR7zdOcUDZrQUzhq-14">
          <mxGeometry relative="1" as="geometry">
            <mxPoint x="-560" y="2740" as="sourcePoint" />
            <mxPoint x="-310" y="2780" as="targetPoint" />
            <Array as="points">
              <mxPoint x="-560" y="2780" />
            </Array>
          </mxGeometry>
        </mxCell>
        <mxCell id="vBR_OR7zdOcUDZrQUzhq-37" style="edgeStyle=orthogonalEdgeStyle;rounded=0;orthogonalLoop=1;jettySize=auto;html=1;fontSize=14;fontColor=#7EA6E0;" edge="1" parent="1">
          <mxGeometry relative="1" as="geometry">
            <mxPoint x="-219" y="2810" as="sourcePoint" />
            <mxPoint x="-470" y="2870" as="targetPoint" />
            <Array as="points">
              <mxPoint x="-219" y="2870" />
            </Array>
          </mxGeometry>
        </mxCell>
        <mxCell id="vBR_OR7zdOcUDZrQUzhq-38" style="edgeStyle=orthogonalEdgeStyle;rounded=0;orthogonalLoop=1;jettySize=auto;html=1;fontSize=14;fontColor=#7EA6E0;entryX=-0.003;entryY=0.49;entryDx=0;entryDy=0;entryPerimeter=0;" edge="1" parent="1" target="vBR_OR7zdOcUDZrQUzhq-15">
          <mxGeometry relative="1" as="geometry">
            <mxPoint x="-550" y="2900" as="sourcePoint" />
            <mxPoint x="-310" y="2926" as="targetPoint" />
            <Array as="points">
              <mxPoint x="-552" y="2900" />
              <mxPoint x="-552" y="2926" />
            </Array>
          </mxGeometry>
        </mxCell>
        <mxCell id="vBR_OR7zdOcUDZrQUzhq-39" style="edgeStyle=orthogonalEdgeStyle;rounded=0;orthogonalLoop=1;jettySize=auto;html=1;fontSize=14;exitX=0.5;exitY=1.009;exitDx=0;exitDy=0;exitPerimeter=0;fillColor=#76608a;strokeColor=#432D57;entryX=0.461;entryY=0;entryDx=0;entryDy=0;entryPerimeter=0;" edge="1" parent="1" source="vBR_OR7zdOcUDZrQUzhq-11" target="vBR_OR7zdOcUDZrQUzhq-5">
          <mxGeometry relative="1" as="geometry">
            <mxPoint x="-560" y="2170" as="targetPoint" />
            <Array as="points">
              <mxPoint x="-225" y="2140" />
              <mxPoint x="-581" y="2140" />
            </Array>
          </mxGeometry>
        </mxCell>
      </root>
    </mxGraphModel>
  </diagram>
</mxfile>
